<?xml version="1.0" encoding="UTF-8" standalone="no"?>
<!-- Created with Inkscape (http://www.inkscape.org/) -->

<svg
   width="32"
   height="32"
   viewBox="0 0 8.467 8.467"
   version="1.1"
   id="svg1"
   xml:space="preserve"
   inkscape:version="1.3 (0e150ed6c4, 2023-07-21)"
   sodipodi:docname="logo.svg"
   xmlns:inkscape="http://www.inkscape.org/namespaces/inkscape"
   xmlns:sodipodi="http://sodipodi.sourceforge.net/DTD/sodipodi-0.dtd"
   xmlns="http://www.w3.org/2000/svg"
   xmlns:svg="http://www.w3.org/2000/svg"><sodipodi:namedview
     id="namedview1"
     pagecolor="#ffffff"
     bordercolor="#000000"
     borderopacity="0.16862745"
     inkscape:showpageshadow="2"
     inkscape:pageopacity="0.0"
     inkscape:pagecheckerboard="0"
     inkscape:deskcolor="#d1d1d1"
     inkscape:document-units="px"
     inkscape:zoom="0.73139029"
     inkscape:cx="397.18876"
     inkscape:cy="561.25984"
     inkscape:window-width="1216"
     inkscape:window-height="1001"
     inkscape:window-x="681"
     inkscape:window-y="0"
     inkscape:window-maximized="0"
     inkscape:current-layer="layer1"
     showborder="false" /><defs
     id="defs1" /><g
     inkscape:label="Layer 1"
     inkscape:groupmode="layer"
     id="layer1"><path
       style="fill:#333333;fill-opacity:1"
       d="m 70.313674,182.96202 -10.709877,0.0513 -0.807087,-0.31593 -0.807086,-0.31593 -0.852549,-0.61759 -0.852549,-0.6176 -0.589323,-1.10219 -0.589322,-1.1022 -0.07637,-15.1474 -0.07637,-15.14739 h 16.149806 16.149807 v 2.24896 2.24895 h 1.867213 1.867212 l 1.143561,0.28796 1.14357,0.28795 0.96565,0.79597 0.96565,0.79598 0.58764,1.09888 0.58763,1.09889 v 5.95312 5.95313 l -0.608631,1.23553 -0.60863,1.23552 -0.84658,0.63872 -0.84658,0.63872 -0.89937,0.30857 -0.899383,0.30856 H 89.49379 87.315873 l -0.108245,2.47494 -0.108246,2.47495 -0.665406,1.29301 -0.665407,1.29301 -1.287247,0.79611 -1.287248,0.79611 z m -5.826083,-7.32838 0.143289,-9.9e-4 0.859896,-0.52429 0.859896,-0.52429 v -0.13663 -0.13664 l -2.083443,-3.67713 -2.083444,-3.67714 2.051,-3.6646 2.051,-3.66459 -0.116626,-0.20032 -0.116626,-0.20032 -0.809865,-0.4188 -0.809864,-0.4188 -0.325274,0.35454 -0.325273,0.35453 -2.140999,3.72718 -2.141,3.72719 -0.08052,0.25536 -0.08052,0.25536 2.502544,4.28569 2.502544,4.28568 z m 13.346917,-0.0992 0.239045,-0.0592 2.435475,-4.24632 2.435475,-4.24633 -2.333726,-4.05122 -2.333727,-4.05122 -0.256617,-0.25661 -0.256617,-0.25662 -0.877926,0.52663 -0.877927,0.52662 0.04697,0.2445 0.04697,0.24449 2.02181,3.51851 2.021811,3.51851 -1.980773,3.48432 -1.980772,3.48432 -0.08801,0.32568 -0.08801,0.32568 0.79375,0.51369 0.79375,0.51369 z m -8.250081,-0.18526 0.455629,0.0209 0.395341,-1.38906 0.39534,-1.38906 1.707013,-6.21771 1.707013,-6.21771 0.08785,-0.51172 0.08785,-0.51172 -1.113032,-0.32806 -1.113033,-0.32807 -0.131056,0.44291 -0.131056,0.44291 -2.129349,7.46372 -2.129348,7.46371 v 0.2533 0.2533 l 0.727604,0.26574 0.727604,0.26575 z M 89.38256,171.6659 h 2.129806 l 0.757254,-0.39159 0.75724,-0.39159 0.55253,-0.70243 0.55253,-0.70242 v -5.81048 -5.81047 l -0.43274,-0.73257 -0.43273,-0.73256 -0.81822,-0.48334 -0.818222,-0.48333 -2.188627,-0.11487 -2.188627,-0.11488 v 8.23527 8.23526 z m 16.43828,5.02303 -1.50246,-0.004 -0.39687,-0.25054 -0.39688,-0.25054 -0.0797,-6.38578 -0.0797,-6.38577 0.41651,-0.63568 0.41651,-0.63567 h 1.5664 1.56639 l 0.41188,0.58804 0.41188,0.58803 v 6.27223 6.27223 l -0.41577,0.41578 -0.41578,0.41577 z m 10.35867,-0.0733 -1.54238,0.0918 -0.46302,-0.28497 -0.46302,-0.28496 v -11.61921 -11.61921 l 0.51177,-0.27389 0.51177,-0.2739 h 1.32142 1.32141 l 0.41577,0.41578 0.41578,0.41577 -0.004,11.29204 -0.004,11.29204 -0.2395,0.37847 -0.23951,0.37847 z m 9.12268,0.0773 h -3.91818 l -0.52917,-0.52917 -0.52917,-0.52916 v -1.27235 -1.27235 l 0.33207,-0.45413 0.33208,-0.45414 4.49657,0.0728 4.49657,0.0728 0.0796,1.84579 0.0796,1.8458 -0.4609,0.33701 -0.46089,0.33702 z m 17.79817,0 h -11.29177 l -0.3175,-0.3175 -0.3175,-0.3175 v -0.46917 -0.46917 l 0.59531,-1.26385 0.59531,-1.26385 0.26459,-0.19439 0.26458,-0.19438 7.69497,-0.004 7.69496,-0.004 0.1437,-0.1437 0.14371,-0.1437 -2.65896,-6.3457 -2.65896,-6.34569 -0.20193,0.20554 -0.20193,0.20555 -2.03457,4.89479 -2.03457,4.89479 -0.52513,0.46302 -0.52512,0.46302 h -1.53929 -1.53929 l -0.41577,-0.41577 -0.41578,-0.41578 v -0.26146 -0.26147 l 3.33137,-7.85557 3.33137,-7.85557 0.5344,-0.46302 0.5344,-0.46303 h 1.63991 1.63991 l 0.43914,0.33073 0.43914,0.33073 1.46351,3.50573 1.46352,3.50573 1.42577,3.37344 1.42577,3.37344 1.64632,3.83645 1.64632,3.83646 0.1333,0.73003 0.13329,0.73003 -0.32737,0.39445 -0.32736,0.39445 z m -37.37038,-16.13958 h -1.78986 l -0.27389,-0.51177 -0.27389,-0.51178 v -3.0601 -3.0601 l 0.52917,-0.52917 0.52916,-0.52917 h 1.4142 1.41421 l 0.43788,0.48386 0.43788,0.48385 v 3.29969 3.29969 l -0.3175,0.3175 -0.3175,0.3175 z m 37.85851,-11.90625 h -2.03136 l -0.36312,-0.43733 -0.36313,-0.43732 -0.0662,-12.85799 -0.0662,-12.85799 0.33846,-0.66145 0.33846,-0.66146 6.44176,-0.0709 6.44177,-0.0709 0.37331,0.30982 0.37331,0.30981 -0.0759,2.27465 -0.0759,2.27465 -4.29948,0.0727 -4.29948,0.0727 v 11.05303 11.05303 l -0.3175,0.3175 -0.3175,0.3175 z m -26.46243,-0.26458 h -13.14794 l -0.1606,-0.41852 -0.1606,-0.41851 v -0.49999 -0.49998 l 0.63699,-1.44035 0.63699,-1.44035 0.5101,-0.27299 0.51009,-0.273 8.69342,-0.0208 8.69342,-0.0208 0.0761,-0.0761 0.0761,-0.0761 -2.98562,-7.10969 -2.98562,-7.1097 -0.25026,-0.0779 -0.25026,-0.0779 -1.42935,3.50024 -1.42934,3.50023 -1.17871,2.71198 -1.1787,2.71198 h -2.35856 -2.35856 l -0.28787,-0.6318 -0.28787,-0.6318 4.02484,-9.40447 4.02483,-9.40446 0.39139,-0.15019 0.39139,-0.15019 2.02888,0.004 2.02888,0.004 0.30827,0.19612 0.30827,0.19612 1.18231,2.77639 1.18231,2.77639 3.7626,8.86354 3.76259,8.86354 0.50151,1.15812 0.50152,1.15811 v 0.57491 0.57491 l -0.3175,0.3175 -0.3175,0.3175 z m -35.694139,-2.11667 h -1.058333 v -1.57275 -1.57274 l -0.638152,-0.74236 -0.638151,-0.74236 -9.349869,-0.13229 -9.349869,-0.13229 -0.973415,-0.60529 -0.973414,-0.60529 -0.54794,-1.13189 -0.547939,-1.1319 v -0.82528 -0.82528 l 0.281416,-0.74483 0.281415,-0.74483 0.710772,-0.76019 0.710772,-0.76019 0.851398,-0.36429 0.851397,-0.36428 h 8.892392 8.892392 l 0.773398,-0.7734 0.773397,-0.7734 v -0.83445 -0.83446 l -0.773397,-0.7734 -0.773398,-0.77339 h -8.71212 -8.71212 l -0.899378,-0.30007 -0.899378,-0.30007 -0.854912,-0.80534 -0.854912,-0.80534 -0.300267,-0.90981 -0.300267,-0.90982 0.136818,-1.02005 0.136817,-1.02005 0.580885,-0.93989 0.580884,-0.93989 0.834352,-0.45661 0.834352,-0.45661 9.34983,-0.13229 9.349831,-0.13229 0.638189,-0.74236 0.63819,-0.74236 v -1.57274 -1.57275 h 1.058333 1.058334 v 1.57028 1.57027 l -0.280812,0.74483 -0.280811,0.74483 -0.831932,0.86248 -0.83193,0.86249 -0.937778,0.26052 -0.937778,0.26052 -8.685456,0.001 -8.685457,0.001 -0.773397,0.7734 -0.773397,0.77339 v 0.56266 0.56266 l 0.387089,0.74855 0.387089,0.74855 0.472807,0.2305 0.472806,0.2305 9.260416,0.13229 9.260417,0.13229 0.865886,0.61759 0.865885,0.6176 0.523177,1.02551 0.523177,1.02551 -0.0044,1.13502 -0.0044,1.13502 -0.592049,1.05833 -0.59205,1.05834 -1.179452,0.59531 -1.179453,0.59531 h -8.688326 -8.688326 l -0.791978,0.40955 -0.791977,0.40955 -0.264144,0.69475 -0.264143,0.69475 0.163533,0.74456 0.163533,0.74456 0.676825,0.53239 0.676825,0.53239 h 8.918537 8.918537 l 1.15214,0.60927 1.15214,0.60926 0.609266,1.15214 0.609267,1.15214 v 1.67818 1.67818 z m 53.754029,-20.37292 h -2.58361 l -0.3175,-0.3175 -0.3175,-0.3175 v -2.05444 -2.05444 l 0.51177,-0.27389 0.51177,-0.27389 h 2.24746 2.24745 l 0.41577,0.41577 0.41578,0.41577 v 1.71829 1.71829 l -0.27389,0.51177 -0.2739,0.51177 z"
       id="path2"
       sodipodi:nodetypes="cccccccccccccccccccccccccccccccccccccccccccccccccccccccccccccccccccccccccccccccccccccccccccccccccccccccccccccccccccccccccccccccccccccccccccccccccccccccccccccccccccccccccccccccccccccccccccccccccccccccccccccccccccccccccccccccccccccccccccccccccccccccccccccccccccccccccccccccccccccccccccccccccccccccccccccccccccccccccccccccccccccccccccccccccccccccccccccccccccccccccccccccccccccccccccccccccccccccccccccccccccccccccccccc" /></g></svg>
